# xmcd
#
# Track frame offsets:
# 150
# 20151
# 38172
# 64519
# 88033
# 101376
# 123034
# 143096
# 166469
# 188662
# 214865
# 238770
# 268093
# 286653
#
# Disc length: 4072 seconds
#
#
# Revision: 0
# Processed by: cddbd v1.5.2PL0 Copyright (c) Steve Scherf et al.
# Submitted via: FreeRIP 2.944 
#
DISCID=bf0fe60e
DTITLE=LAmour-Sackett02 - Far-Blue-Mt3
DYEAR=1976
DGENRE=Booty Bass
TTITLE0=301
TTITLE1=302
TTITLE2=3003
TTITLE3=304
TTITLE4=305
TTITLE5=306
TTITLE6=307
TTITLE7=308
TTITLE8=309
TTITLE9=310
TTITLE10=311
TTITLE11=312
TTITLE12=313
TTITLE13=314
EXTD=To the Far Blue Mountains by Louis A'mour\nread by John Curless - Sacketts 1976\nRandom House Inc 8 CDs
EXTT0=
EXTT1=
EXTT2=
EXTT3=
EXTT4=
EXTT5=
EXTT6=
EXTT7=
EXTT8=
EXTT9=
EXTT10=
EXTT11=
EXTT12=
EXTT13=
PLAYORDER=
